<svg width="512" height="512" viewBox="0 0 512 512" fill="none" xmlns="http://www.w3.org/2000/svg">
  <rect width="512" height="512" rx="96" fill="#7ED7C1"/>
  <circle cx="366" cy="144" r="64" fill="#FFE1C8"/>
  <rect x="88" y="154" width="336" height="230" rx="48" fill="white"/>
  <path d="M154 320L196 208H232L274 320H240L232 296H194L186 320H154ZM202 271H224L213 237L202 271Z" fill="#243042"/>
  <path d="M288 320V208H341C365 208 381 221 381 243C381 257 374 268 362 274C377 280 386 292 386 309C386 332 369 346 342 346H288V320ZM319 260H337C347 260 352 255 352 247C352 239 347 234 337 234H319V260ZM319 319H342C352 319 358 313 358 305C358 297 352 291 342 291H319V319Z" fill="#243042"/>
</svg>
